<svg xmlns="http://www.w3.org/2000/svg" viewBox="0 0 472 99" width="472" height="99"><path d="M281.1 1h7.7v48.8h-7.7V29.4h-23.5v20.4h-7.7V1h7.7v21.6h23.5V1zM67.5 73.7h.2l12 13.8 11.8-13.8h.2v24.9H88V82.8l-8.4 10h-.2l-8.3-10v15.9h-3.6v-25zM135.1 94.1h-10l-1.9 4.6h-3.9l10.8-24.9h.2l10.8 24.9H137l-1.9-4.6zm-8.5-3.4h7.1l-3.5-8.6-3.6 8.6zM168.9 74.2h3.9v21h10.8v3.4h-14.7V74.2zM211.3 74.2h6.9c8 0 12.9 5 12.9 12.2s-4.9 12.2-12.9 12.2h-6.9V74.2zm6.7 21c6.3 0 9.1-3.6 9.1-8.8s-2.8-8.8-9.1-8.8h-2.8v17.6h2.8zM258.8 74.2h3.9v24.5h-3.9V74.2zM290.4 74.2h4.1l7 16.4 6.8-16.4h3.9L301.6 99h-.2l-11-24.8zM339.9 74.2h15.6v3.4h-11.8v7h10.4v3.3h-10.4v7.3H356v3.5h-16.1V74.2zM387 92.2c1 2.1 3.2 3.4 5.5 3.3 2.6 0 4.3-1.2 4.3-3.2 0-2.3-1.8-3.2-3.9-4.1l-1.7-.7c-3.6-1.6-6.1-3.4-6.1-7.2 0-3.8 2.8-6.4 7-6.4 3.4 0 5.7 1.3 7.2 3.8l-2.9 1.9c-.8-1.5-2.5-2.5-4.2-2.4-2.1 0-3.4 1.2-3.4 2.8 0 2 1.2 2.6 3.9 3.8l1.7.8c3.7 1.7 6.2 3.4 6.2 7.6 0 4.5-3.5 6.8-8.1 6.8-3.7.2-7.2-1.9-8.8-5.1l3.3-1.7zM18.3 21.9l19.8 27.9h-9.4l-15.5-22-5.5 6.5v15.6H0V1h7.7v23.6L27 1h8.6L18.3 21.9zM89.3 40.7H69.5l-3.8 9.1h-7.8L79.3 0h.4l21.5 49.8h-8.1l-3.8-9.1zm-17-6.7h14.3l-7.1-17.1L72.3 34zM132.5 17.7v32.1h-7.2V.3h.6l31.4 32.8V1h7.2v49.5h-.6l-31.4-32.8zM188.5 32.6V1h7.7v31.2c0 7.8 3.9 11.3 11 11.3s10.9-3.5 10.9-11.3V1h7.7v31.6c0 12-8.1 17.9-18.6 17.9s-18.7-6-18.7-17.9zM312.8 32.6V1h7.7v31.2c0 7.8 3.9 11.3 11 11.3s10.9-3.5 10.9-11.3V1h7.7v31.6c0 12-8.1 17.9-18.6 17.9-10.5 0-18.7-6-18.7-17.9zM382 49.8h-7.7V1H390c11.4 0 18 6.2 18 15.5 0 6.8-3.4 11.7-9.5 14l11.8 19.4h-8.4l-11-18H382v17.9zm7.7-24.6c7.3 0 10.3-2.9 10.3-8.7s-3.1-8.7-10.3-8.7H382v17.3l7.7.1zM460.1 40.7h-19.9l-3.8 9.1h-7.8L450 0h.4L472 49.8h-8.1l-3.8-9.1zM443 34h14.2l-7-17.1L443 34z" fill="#00b2a9"/></svg>